<svg id="Capa_1" data-name="Capa 1" xmlns="http://www.w3.org/2000/svg" viewBox="0 0 305.55 50"><title>separador</title><path d="M574.47,360.71c-.11,3.14-2.28,12.06-7.27,20.78l-1.76,3.08,3.11-1.7,13.52-7.41c-5.42,8.08-22.43,30.56-25,32.76l-34.6-.19c-2.61-2.25-20.26-25.5-25.76-33.7l12.07,6.55,2.78,1.51-1.41-2.84c-3.73-7.5-5.43-14.92-5.48-17.95.49.43,1.15,1.08,1.75,1.68,3.95,3.93,11.3,11.22,23.54,13.86l.1,0h.1l17.47.1h.11l.1,0c12.66-2.62,20.48-10.46,24.69-14.67.66-.67,1.39-1.39,1.92-1.86m.52-1.44c-2,0-10.23,13.45-27.33,17l-17.47-.1c-16.54-3.57-24.1-16-26-16-.34,0-.5.39-.5,1.28,0,2.89,1.64,10.63,5.59,18.56l-15.15-8.22c0,2,26.83,37.24,28.08,37.24l35.16.2h0c1.25,0,27.3-34.36,27.32-36.34L568.07,382c5.13-9,7.39-18.31,7.4-21.5,0-.85-.15-1.22-.48-1.22Z" transform="translate(-494.13 -359.27)"/><path d="M682,360.74c-.11,3.13-2.27,12.05-7.26,20.78l-1.76,3.07,3.11-1.7,13.51-7.41c-5.41,8.08-22.43,30.56-25,32.76l-34.6-.19c-2.61-2.25-20.26-25.5-25.76-33.7l12.06,6.55,2.79,1.51-1.41-2.83c-3.74-7.5-5.44-14.93-5.49-18,.49.43,1.15,1.08,1.76,1.69,3.94,3.92,11.29,11.21,23.53,13.86l.1,0h.11l17.47.1h.1l.11,0C668,374.64,675.84,366.8,680,362.59c.67-.67,1.4-1.39,1.92-1.85m.52-1.45c-2,0-10.23,13.45-27.33,17l-17.47-.1c-16.54-3.57-24.09-16-26-16-.33,0-.49.39-.5,1.28,0,2.89,1.65,10.63,5.59,18.56l-15.14-8.22c0,2,26.82,37.24,28.07,37.24l35.17.2h0c1.25,0,27.3-34.36,27.31-36.34L675.57,382c5.13-9,7.39-18.31,7.4-21.5,0-.85-.16-1.22-.49-1.22Z" transform="translate(-494.13 -359.27)"/><path d="M789.46,360.76c-.11,3.13-2.28,12.05-7.27,20.78l-1.76,3.07,3.11-1.7,13.52-7.41c-5.42,8.08-22.43,30.56-25,32.76l-34.6-.19c-2.61-2.25-20.26-25.5-25.76-33.7l12.07,6.55,2.78,1.51-1.41-2.83c-3.73-7.5-5.43-14.92-5.48-18,.49.43,1.15,1.08,1.75,1.69,4,3.92,11.3,11.22,23.54,13.86l.1,0h.1l17.47.1h.11l.1,0c12.66-2.63,20.48-10.46,24.69-14.68.66-.66,1.39-1.39,1.92-1.85m.52-1.45c-2,0-10.23,13.45-27.33,17l-17.47-.1c-16.54-3.57-24.1-16-26-16-.34,0-.5.39-.5,1.28,0,2.89,1.64,10.63,5.59,18.56l-15.15-8.22c0,2,26.83,37.24,28.08,37.25l35.16.19h0c1.25,0,27.3-34.36,27.32-36.33L783.06,382c5.13-9,7.39-18.31,7.4-21.5,0-.85-.15-1.22-.48-1.22Z" transform="translate(-494.13 -359.27)"/></svg>